<?xml version="1.0" standalone="no"?>
<!DOCTYPE svg PUBLIC "-//W3C//DTD SVG 20010904//EN"
 "http://www.w3.org/TR/2001/REC-SVG-20010904/DTD/svg10.dtd">
<svg version="1.0" xmlns="http://www.w3.org/2000/svg"
 width="900.000000pt" height="900.000000pt" viewBox="0 0 900.000000 900.000000"
 preserveAspectRatio="xMidYMid meet">
<metadata>
Created by potrace 1.11, written by Peter Selinger 2001-2013
</metadata>
<g transform="translate(0.000000,900.000000) scale(0.100000,-0.100000)"
fill="#000000" stroke="none">
<path d="M0 4500 l0 -4500 4500 0 4500 0 0 4500 0 4500 -4500 0 -4500 0 0
-4500z m3463 2948 c20 -19 102 -270 450 -1378 234 -745 428 -1367 432 -1381 4
-18 1 -31 -10 -43 -15 -14 -57 -16 -394 -16 -361 0 -379 1 -395 19 -10 11 -39
95 -65 188 l-48 168 -444 0 -444 0 -50 -173 c-35 -120 -56 -178 -69 -188 -16
-11 -88 -14 -389 -14 -235 0 -375 4 -388 10 -10 6 -19 19 -19 29 0 14 843
2708 865 2762 14 35 44 38 497 38 l447 1 24 -22z m1860 -9 c12 -14 204 -332
427 -707 223 -375 411 -681 419 -682 11 0 12 109 6 684 l-8 684 27 27 26 26
346 -3 c329 -3 346 -4 360 -22 12 -17 14 -224 14 -1398 0 -1365 0 -1378 -20
-1398 -19 -19 -33 -20 -353 -20 -251 0 -337 3 -350 13 -9 6 -205 325 -435 706
-229 382 -421 693 -425 690 -4 -2 -8 -312 -7 -688 0 -626 -1 -686 -16 -702
-16 -18 -39 -19 -362 -19 -307 0 -347 2 -364 17 -17 15 -18 72 -18 1404 l0
1388 23 16 c19 14 64 15 355 13 l334 -3 21 -26z m-997 -3043 c19 -14 19 -36
19 -1008 0 -1065 1 -1048 -51 -1202 -106 -311 -385 -542 -749 -617 -123 -26
-316 -34 -448 -20 -525 57 -863 369 -916 844 -17 150 -14 348 5 375 l15 22
353 0 c323 0 354 -1 369 -17 12 -14 16 -52 19 -188 4 -191 15 -228 86 -301 59
-61 111 -79 227 -79 89 0 106 3 157 28 32 16 75 48 97 73 75 85 71 26 71 1091
0 960 1 983 34 1005 6 4 164 8 352 8 278 0 344 -3 360 -14z m1677 -15 c415
-93 672 -309 769 -646 23 -80 23 -81 23 -735 0 -594 -2 -662 -18 -731 -71
-304 -327 -547 -677 -643 -165 -46 -197 -48 -843 -53 -555 -4 -621 -3 -643 11
l-24 16 0 1387 c0 1295 1 1388 17 1405 17 19 39 19 658 15 615 -3 644 -4 738
-26z"/>
<path d="M2847 6072 c-70 -251 -127 -460 -127 -464 0 -5 119 -8 265 -8 246 0
265 1 265 18 -1 32 -255 905 -265 909 -6 1 -68 -203 -138 -455z"/>
<path d="M5355 3738 c-3 -7 -4 -348 -3 -758 l3 -745 199 -3 c254 -3 286 5 367
87 63 65 93 131 109 239 12 87 12 784 0 882 -18 141 -100 258 -207 294 -61 21
-461 24 -468 4z"/>
</g>
</svg>
