<?xml version="1.0" standalone="no"?>
<!DOCTYPE svg PUBLIC "-//W3C//DTD SVG 20010904//EN"
 "http://www.w3.org/TR/2001/REC-SVG-20010904/DTD/svg10.dtd">
<svg version="1.0" xmlns="http://www.w3.org/2000/svg"
 width="260.000000pt" height="260.000000pt" viewBox="0 0 260.000000 260.000000"
 preserveAspectRatio="xMidYMid meet">
<metadata>
Created by potrace 1.11, written by Peter Selinger 2001-2013
</metadata>
<g transform="translate(0.000000,260.000000) scale(0.100000,-0.100000)"
fill="#000000" stroke="none">
<path d="M1085 1983 c-163 -23 -285 -76 -368 -158 -43 -43 -100 -128 -103
-154 0 -3 -6 -25 -14 -49 -7 -23 -11 -44 -9 -46 2 -2 85 -27 183 -56 185 -53
195 -54 196 -9 0 8 13 36 29 62 39 61 94 89 186 94 84 6 132 -12 168 -59 29
-39 37 -63 43 -127 4 -53 1 -56 -76 -66 -94 -14 -332 -68 -410 -95 -238 -79
-346 -212 -335 -410 13 -237 201 -343 544 -306 125 14 230 63 306 143 l42 45
10 -29 c43 -121 220 -190 413 -159 35 5 100 28 101 36 0 3 2 14 4 25 2 11 7
40 10 65 14 102 16 116 20 136 5 21 1 22 -61 21 -61 -1 -68 1 -90 26 -22 25
-24 38 -24 120 -1 410 -7 563 -27 623 -55 168 -188 272 -403 315 -57 11 -283
19 -335 12z m311 -870 c-3 -99 -19 -132 -88 -177 -37 -24 -86 -38 -143 -41
-78 -4 -132 32 -139 96 -9 87 37 123 219 168 66 16 127 30 136 30 15 1 17 -10
15 -76z"/>
</g>
</svg>
